<svg xmlns="http://www.w3.org/2000/svg" xmlns:xlink="http://www.w3.org/1999/xlink" version="1.1" id="Layer_1" x="0px" y="0px" width="100.0px" height="100px" viewBox="0 0 216 216" enable-background="new 0 0 216 216" xml:space="preserve">
<g>
	<path d="M136.867,104.083l0.021-0.002l-0.211-0.594c-3.994-12.157-15.346-20.696-28.642-20.696c-1.009,0-2.032,0.051-3.042,0.152   C88.42,84.6,76.285,99.433,77.942,116.006c0.135,1.349,0.361,2.667,0.662,3.954l-0.017,0.002l0.09,0.325   c3.276,13.33,15.192,22.923,29.287,22.923c1.009,0,2.032-0.051,3.042-0.152c16.573-1.658,28.708-16.49,27.051-33.064   C137.854,107.95,137.446,105.976,136.867,104.083z M134.12,102.347l-21.702,2.171l-0.16,0.029c-0.212,0.057-0.426,0.113-0.65,0.135   c-0.139,0.014-0.275,0.021-0.412,0.021c-2.104,0-3.848-1.581-4.058-3.677c-0.224-2.24,1.417-4.245,3.656-4.469   c0.088-0.009,0.176-0.012,0.263-0.012c0.135,0,0.27,0.007,0.403,0.016l0.081,0.005l17.976-1.798   C131.457,97.053,133.001,99.595,134.12,102.347z M81.175,121.713l19.556-1.956l0.16-0.029c0.211-0.057,0.436-0.114,0.65-0.135   c2.269-0.23,4.245,1.424,4.469,3.656c0.108,1.085-0.212,2.147-0.902,2.992s-1.669,1.369-2.755,1.477   c-0.224,0.023-0.446,0.011-0.664-0.003l-0.081-0.005l-16.582,1.658C83.353,127.024,82.061,124.456,81.175,121.713z    M110.808,141.067c-0.943,0.094-1.9,0.143-2.843,0.143c-8.61,0-16.35-3.835-21.529-9.973l15.21-1.521   c0.299,0.017,0.601,0.024,0.907-0.007c1.617-0.162,3.074-0.943,4.103-2.201c1.029-1.257,1.506-2.84,1.345-4.457   c-0.332-3.324-3.268-5.786-6.657-5.447c-0.331,0.033-0.631,0.104-0.892,0.173l-19.843,1.984c-0.312-1.283-0.541-2.602-0.676-3.953   c-1.548-15.476,9.783-29.327,25.26-30.875c0.943-0.094,1.9-0.143,2.843-0.143c7.715,0,14.729,3.078,19.831,8.133l-16.363,1.637   c-0.3-0.019-0.601-0.023-0.907,0.007c-3.338,0.334-5.782,3.321-5.448,6.659c0.312,3.123,2.912,5.478,6.048,5.478   c0.202,0,0.406-0.01,0.612-0.03c0.318-0.032,0.614-0.101,0.89-0.173l22.135-2.214c0.606,1.885,1.03,3.858,1.235,5.907   C137.615,125.669,126.284,139.52,110.808,141.067z"/>
	<path d="M146.5,87.234c-2.903,0-5.266,2.362-5.266,5.266s2.362,5.266,5.266,5.266s5.266-2.362,5.266-5.266   S149.403,87.234,146.5,87.234z M146.5,95.766c-1.801,0-3.266-1.465-3.266-3.266s1.465-3.266,3.266-3.266s3.266,1.465,3.266,3.266   S148.301,95.766,146.5,95.766z"/>
</g>
</svg>